<svg id="visual" viewBox="0 0 960 300" width="960" height="300" xmlns="http://www.w3.org/2000/svg" xmlns:xlink="http://www.w3.org/1999/xlink" version="1.1"><rect x="0" y="0" width="960" height="300" fill="#F4EBD0"></rect><path d="M0 89L22.8 93.7C45.7 98.3 91.3 107.7 137 112.3C182.7 117 228.3 117 274 112.5C319.7 108 365.3 99 411.2 99.8C457 100.7 503 111.3 548.8 114.2C594.7 117 640.3 112 686 109.3C731.7 106.7 777.3 106.3 823 105.3C868.7 104.3 914.3 102.7 937.2 101.8L960 101L960 301L937.2 301C914.3 301 868.7 301 823 301C777.3 301 731.7 301 686 301C640.3 301 594.7 301 548.8 301C503 301 457 301 411.2 301C365.3 301 319.7 301 274 301C228.3 301 182.7 301 137 301C91.3 301 45.7 301 22.8 301L0 301Z" fill="#d6ad60"></path><path d="M0 131L22.8 131C45.7 131 91.3 131 137 131.8C182.7 132.7 228.3 134.3 274 131.3C319.7 128.3 365.3 120.7 411.2 117C457 113.3 503 113.7 548.8 116.7C594.7 119.7 640.3 125.3 686 125.2C731.7 125 777.3 119 823 123C868.7 127 914.3 141 937.2 148L960 155L960 301L937.2 301C914.3 301 868.7 301 823 301C777.3 301 731.7 301 686 301C640.3 301 594.7 301 548.8 301C503 301 457 301 411.2 301C365.3 301 319.7 301 274 301C228.3 301 182.7 301 137 301C91.3 301 45.7 301 22.8 301L0 301Z" fill="#d2a95c"></path><path d="M0 140L22.8 142.7C45.7 145.3 91.3 150.7 137 156.7C182.7 162.7 228.3 169.3 274 165.5C319.7 161.7 365.3 147.3 411.2 139.8C457 132.3 503 131.7 548.8 134.5C594.7 137.3 640.3 143.7 686 147.8C731.7 152 777.3 154 823 156.7C868.7 159.3 914.3 162.7 937.2 164.3L960 166L960 301L937.2 301C914.3 301 868.7 301 823 301C777.3 301 731.7 301 686 301C640.3 301 594.7 301 548.8 301C503 301 457 301 411.2 301C365.3 301 319.7 301 274 301C228.3 301 182.7 301 137 301C91.3 301 45.7 301 22.8 301L0 301Z" fill="#cea558"></path><path d="M0 160L22.8 160.5C45.7 161 91.3 162 137 160.2C182.7 158.3 228.3 153.7 274 158.5C319.7 163.3 365.3 177.7 411.2 185.2C457 192.7 503 193.3 548.8 188.7C594.7 184 640.3 174 686 167.5C731.7 161 777.3 158 823 163.3C868.7 168.7 914.3 182.3 937.2 189.2L960 196L960 301L937.2 301C914.3 301 868.7 301 823 301C777.3 301 731.7 301 686 301C640.3 301 594.7 301 548.8 301C503 301 457 301 411.2 301C365.3 301 319.7 301 274 301C228.3 301 182.7 301 137 301C91.3 301 45.7 301 22.8 301L0 301Z" fill="#caa154"></path><path d="M0 200L22.8 199.3C45.7 198.7 91.3 197.3 137 199.2C182.7 201 228.3 206 274 202.2C319.7 198.3 365.3 185.7 411.2 184.2C457 182.7 503 192.3 548.8 195.5C594.7 198.7 640.3 195.3 686 190.7C731.7 186 777.3 180 823 182C868.7 184 914.3 194 937.2 199L960 204L960 301L937.2 301C914.3 301 868.7 301 823 301C777.3 301 731.7 301 686 301C640.3 301 594.7 301 548.8 301C503 301 457 301 411.2 301C365.3 301 319.7 301 274 301C228.3 301 182.7 301 137 301C91.3 301 45.7 301 22.8 301L0 301Z" fill="#c69d50"></path><path d="M0 209L22.8 208.7C45.7 208.3 91.3 207.7 137 206C182.7 204.3 228.3 201.7 274 204.8C319.7 208 365.3 217 411.2 217.8C457 218.7 503 211.3 548.8 207.7C594.7 204 640.3 204 686 202.8C731.7 201.7 777.3 199.3 823 198.3C868.7 197.3 914.3 197.7 937.2 197.8L960 198L960 301L937.2 301C914.3 301 868.7 301 823 301C777.3 301 731.7 301 686 301C640.3 301 594.7 301 548.8 301C503 301 457 301 411.2 301C365.3 301 319.7 301 274 301C228.3 301 182.7 301 137 301C91.3 301 45.7 301 22.8 301L0 301Z" fill="#c2994c"></path><path d="M0 233L22.8 232.7C45.7 232.3 91.3 231.7 137 232.3C182.7 233 228.3 235 274 237C319.7 239 365.3 241 411.2 241.7C457 242.3 503 241.7 548.8 239.3C594.7 237 640.3 233 686 232.7C731.7 232.3 777.3 235.7 823 235C868.7 234.3 914.3 229.7 937.2 227.3L960 225L960 301L937.2 301C914.3 301 868.7 301 823 301C777.3 301 731.7 301 686 301C640.3 301 594.7 301 548.8 301C503 301 457 301 411.2 301C365.3 301 319.7 301 274 301C228.3 301 182.7 301 137 301C91.3 301 45.7 301 22.8 301L0 301Z" fill="#be9548"></path><path d="M0 242L22.8 242C45.7 242 91.3 242 137 241.7C182.7 241.3 228.3 240.7 274 243.3C319.7 246 365.3 252 411.2 252.7C457 253.3 503 248.7 548.8 246.3C594.7 244 640.3 244 686 243.5C731.7 243 777.3 242 823 242.3C868.7 242.7 914.3 244.3 937.2 245.2L960 246L960 301L937.2 301C914.3 301 868.7 301 823 301C777.3 301 731.7 301 686 301C640.3 301 594.7 301 548.8 301C503 301 457 301 411.2 301C365.3 301 319.7 301 274 301C228.3 301 182.7 301 137 301C91.3 301 45.7 301 22.8 301L0 301Z" fill="#ba9144"></path><path d="M0 269L22.8 270C45.7 271 91.3 273 137 272.3C182.7 271.7 228.3 268.3 274 265.8C319.7 263.3 365.3 261.7 411.2 261C457 260.3 503 260.7 548.8 261.3C594.7 262 640.3 263 686 264C731.7 265 777.3 266 823 267.7C868.7 269.3 914.3 271.7 937.2 272.8L960 274L960 301L937.2 301C914.3 301 868.7 301 823 301C777.3 301 731.7 301 686 301C640.3 301 594.7 301 548.8 301C503 301 457 301 411.2 301C365.3 301 319.7 301 274 301C228.3 301 182.7 301 137 301C91.3 301 45.7 301 22.8 301L0 301Z" fill="#b68d40"></path></svg>