<svg id="visual" viewBox="0 0 960 300" width="960" height="300" xmlns="http://www.w3.org/2000/svg" xmlns:xlink="http://www.w3.org/1999/xlink" version="1.1"><rect x="0" y="0" width="960" height="300" fill="#F4EBD0"></rect><path d="M0 167L13.3 163.2C26.7 159.3 53.3 151.7 80 158C106.7 164.3 133.3 184.7 160 186.5C186.7 188.3 213.3 171.7 240 173C266.7 174.3 293.3 193.7 320 202.3C346.7 211 373.3 209 400 201.3C426.7 193.7 453.3 180.3 480 171C506.7 161.7 533.3 156.3 560 163.2C586.7 170 613.3 189 640 188.8C666.7 188.7 693.3 169.3 720 163.8C746.7 158.3 773.3 166.7 800 171.3C826.7 176 853.3 177 880 176.5C906.7 176 933.3 174 946.7 173L960 172L960 0L946.7 0C933.3 0 906.7 0 880 0C853.3 0 826.7 0 800 0C773.3 0 746.7 0 720 0C693.3 0 666.7 0 640 0C613.3 0 586.7 0 560 0C533.3 0 506.7 0 480 0C453.3 0 426.7 0 400 0C373.3 0 346.7 0 320 0C293.3 0 266.7 0 240 0C213.3 0 186.7 0 160 0C133.3 0 106.7 0 80 0C53.3 0 26.7 0 13.3 0L0 0Z" fill="#d6ad60"></path><path d="M0 132L13.3 135.2C26.7 138.3 53.3 144.7 80 148.5C106.7 152.3 133.3 153.7 160 151.3C186.7 149 213.3 143 240 137C266.7 131 293.3 125 320 130.8C346.7 136.7 373.3 154.3 400 160.7C426.7 167 453.3 162 480 160.2C506.7 158.3 533.3 159.7 560 161.7C586.7 163.7 613.3 166.3 640 167C666.7 167.7 693.3 166.3 720 165.5C746.7 164.7 773.3 164.3 800 164.8C826.7 165.3 853.3 166.7 880 166.8C906.7 167 933.3 166 946.7 165.5L960 165L960 0L946.7 0C933.3 0 906.7 0 880 0C853.3 0 826.7 0 800 0C773.3 0 746.7 0 720 0C693.3 0 666.7 0 640 0C613.3 0 586.7 0 560 0C533.3 0 506.7 0 480 0C453.3 0 426.7 0 400 0C373.3 0 346.7 0 320 0C293.3 0 266.7 0 240 0C213.3 0 186.7 0 160 0C133.3 0 106.7 0 80 0C53.3 0 26.7 0 13.3 0L0 0Z" fill="#cea558"></path><path d="M0 107L13.3 108.3C26.7 109.7 53.3 112.3 80 115.8C106.7 119.3 133.3 123.7 160 122.5C186.7 121.3 213.3 114.7 240 109.2C266.7 103.7 293.3 99.3 320 99C346.7 98.7 373.3 102.3 400 106.3C426.7 110.3 453.3 114.7 480 118.5C506.7 122.3 533.3 125.7 560 123.2C586.7 120.7 613.3 112.3 640 111.8C666.7 111.3 693.3 118.7 720 123.8C746.7 129 773.3 132 800 130C826.7 128 853.3 121 880 118.2C906.7 115.3 933.3 116.7 946.7 117.3L960 118L960 0L946.7 0C933.3 0 906.7 0 880 0C853.3 0 826.7 0 800 0C773.3 0 746.7 0 720 0C693.3 0 666.7 0 640 0C613.3 0 586.7 0 560 0C533.3 0 506.7 0 480 0C453.3 0 426.7 0 400 0C373.3 0 346.7 0 320 0C293.3 0 266.7 0 240 0C213.3 0 186.7 0 160 0C133.3 0 106.7 0 80 0C53.3 0 26.7 0 13.3 0L0 0Z" fill="#c69d50"></path><path d="M0 74L13.3 72.2C26.7 70.3 53.3 66.7 80 69.2C106.7 71.7 133.3 80.3 160 81.3C186.7 82.3 213.3 75.7 240 76.2C266.7 76.7 293.3 84.3 320 84.8C346.7 85.3 373.3 78.7 400 73.8C426.7 69 453.3 66 480 68.5C506.7 71 533.3 79 560 84C586.7 89 613.3 91 640 91.8C666.7 92.7 693.3 92.3 720 88.7C746.7 85 773.3 78 800 75.5C826.7 73 853.3 75 880 75.5C906.7 76 933.3 75 946.7 74.5L960 74L960 0L946.7 0C933.3 0 906.7 0 880 0C853.3 0 826.7 0 800 0C773.3 0 746.7 0 720 0C693.3 0 666.7 0 640 0C613.3 0 586.7 0 560 0C533.3 0 506.7 0 480 0C453.3 0 426.7 0 400 0C373.3 0 346.7 0 320 0C293.3 0 266.7 0 240 0C213.3 0 186.7 0 160 0C133.3 0 106.7 0 80 0C53.3 0 26.7 0 13.3 0L0 0Z" fill="#be9548"></path><path d="M0 57L13.3 57.7C26.7 58.3 53.3 59.7 80 60.7C106.7 61.7 133.3 62.3 160 59.5C186.7 56.7 213.3 50.3 240 46.3C266.7 42.3 293.3 40.7 320 41.5C346.7 42.3 373.3 45.7 400 46.7C426.7 47.7 453.3 46.3 480 45.5C506.7 44.7 533.3 44.3 560 45.5C586.7 46.7 613.3 49.3 640 48.5C666.7 47.7 693.3 43.3 720 43.5C746.7 43.7 773.3 48.3 800 52.3C826.7 56.3 853.3 59.7 880 57.7C906.7 55.7 933.3 48.3 946.7 44.7L960 41L960 0L946.7 0C933.3 0 906.7 0 880 0C853.3 0 826.7 0 800 0C773.3 0 746.7 0 720 0C693.3 0 666.7 0 640 0C613.3 0 586.7 0 560 0C533.3 0 506.7 0 480 0C453.3 0 426.7 0 400 0C373.3 0 346.7 0 320 0C293.3 0 266.7 0 240 0C213.3 0 186.7 0 160 0C133.3 0 106.7 0 80 0C53.3 0 26.7 0 13.3 0L0 0Z" fill="#b68d40"></path></svg>